<?xml version="1.0" encoding="utf-8"?>
<!-- Generator: Adobe Illustrator 22.0.2, SVG Export Plug-In . SVG Version: 6.00 Build 0)  -->
<svg version="1.1" id="图层_1" xmlns="http://www.w3.org/2000/svg" xmlns:xlink="http://www.w3.org/1999/xlink" x="0px" y="0px"
	 viewBox="0 0 177 114" style="enable-background:new 0 0 177 114;" xml:space="preserve">
<style type="text/css">
	.st0{fill:#FE3228;}
	.st1{fill:#FE382E;}
	.st2{fill:#FE3A31;}
</style>
<path class="st0" d="M59.5,106c-11.7,0-21.8-4.1-30.1-12.5c-3.3-3.4-6.6-7.2-2-11.6c4-3.7,7.6-1.2,10.8,2.2
	c6.9,7.3,15.6,10.2,25.5,8.8c11.3-1.6,20.4-9.7,22.6-19.5c2.5-11.2-1.4-21.6-10.5-27.8c-9.9-6.7-23.5-6.7-33.2,0.2
	c-0.7,0.5-1.4,1.1-2.1,1.7c-3.9,3.3-7.7,10.1-13.3,4c-5.8-6.4,1.6-9.9,5.2-13.9c1.4-1.5,3.2-3,5.1-3.7c9.2-3.5,17.5-7.2,14.7-20
	c-0.7-3.3,2.9-5.8,6.7-5.9c3.9,0,6.2,2.4,6.9,5.9c0.5,2.3,0.5,4.8,0.2,7.2c-0.5,5,1.1,7.2,6.3,8.8c20.1,6.4,30.3,23.8,26.9,44.4
	C96.3,92.5,79.4,105.9,59.5,106z"/>
<path class="st0" d="M94.2,99.7c3.3-6.9,6.3-11.4,15.5-7.7c10.7,4.3,24-1.4,30.4-10.6c5.9-8.6,5.9-20.3,0.1-29
	c-6.2-9.2-19.6-15.1-30.3-10.8c-9.2,3.7-12.4-0.4-15.5-7.6c1.5-0.8,2.9-2.2,4.6-2.5c8.3-1.5,11.3-6.1,10.3-14.5
	c-0.6-4.8,1.4-9.4,7.5-9c5.4,0.3,7,4.5,6.4,9.1c-1.1,7.8,1.6,11.3,9.4,14c20.9,7.3,30.3,30.1,22.1,50.3c-8,19.9-32.2,29.8-53,21.8
	C99.1,102.4,96.8,101,94.2,99.7z"/>
<path class="st0" d="M48.2,73.9c-6.6,0-13.3,0-19.9,0c-4.6,0-8.9-0.9-8.9-6.6c0-5.4,3.7-7,8.6-7c13,0.1,26,0.1,38.9,0
	c4.9,0,8.5,1.7,8.5,7.1c-0.1,5-3.8,6.4-8.1,6.4C60.9,73.9,54.6,73.9,48.2,73.9z"/>
<path class="st1" d="M116.8,74.5c-5.5,0.6-12.2,1.6-10.4-9.4c0.7-4,1.8-5,5.4-4.9c4.2,0.2,8.4,0.1,12.6,0c4.9-0.1,8.6,1.9,8.6,7
	s-3.9,7-8.6,7.2C122.3,74.5,120.2,74.5,116.8,74.5z"/>
<path class="st1" d="M31.7,29.3c-4.7-0.6-8.4-3.1-8.6-8.4c-0.2-5.4,3.1-8.6,8.2-9c5.3-0.3,8.6,3.1,8.9,8.2
	C40.4,25.4,37.1,28.4,31.7,29.3z"/>
<path class="st2" d="M88,11.7c5.3,0.8,8.6,3.7,8.6,8.9c-0.1,5.2-3.5,8.6-8.7,8.5c-5.1-0.1-8.6-3.4-8.5-8.7
	C79.5,15.1,83.1,12.5,88,11.7z"/>
<path class="st2" d="M151.8,20.6c-0.7,5.2-3.7,8.6-8.9,8.5s-8.6-3.5-8.5-8.7s3.4-8.6,8.7-8.5C148.3,12,151.2,15.4,151.8,20.6z"/>
</svg>
