<?xml version="1.0" encoding="utf-8"?>
<!-- Generator: Adobe Illustrator 22.0.2, SVG Export Plug-In . SVG Version: 6.00 Build 0)  -->
<svg version="1.1" id="图层_1" xmlns="http://www.w3.org/2000/svg" xmlns:xlink="http://www.w3.org/1999/xlink" x="0px" y="0px"
	 viewBox="0 0 280.8 86.4" style="enable-background:new 0 0 280.8 86.4;" xml:space="preserve">
<g>
	<path d="M44.2,39.2c0-4.2-0.1-8.3,0-12.5c0.2-4.8,2.7-6.5,7.2-4.9c0.9,0.3,2.2,1.5,2.6,1.2c5.2-4,9.8-2.2,14.6,1
		c1.1,0.8,2.1-0.6,2.9-1.4c2.9-2.5,6.4-2.6,9.4-1.2c3,1.5,4.8,4.4,4.8,8.2c-0.1,7.5,0,15,0,22.5c0,2.6-0.6,4.6-3.9,4.5
		c-3,0-4.7-1.2-4.6-4.4c0.1-6,0-12-0.1-18c0-2.1,0-4.6-3.1-4.8c-3.1-0.3-4.2,2-4.4,4.4c-0.3,4.5-0.2,9-0.3,13.5
		c0,1.8-0.1,3.7-0.2,5.5c-0.1,2.6-1.5,3.9-4.1,4c-2.9,0.1-3.7-1.6-3.7-4.1c0-5.7-0.1-11.3-0.1-17c0-3-0.5-6.3-4-6.4
		s-4.3,3.1-4.4,6.1c-0.1,5.7-0.1,11.3-0.1,17c0,2.7-0.7,4.5-3.9,4.4c-3-0.1-4.7-1.2-4.6-4.5C44.3,47.9,44.3,43.5,44.2,39.2
		L44.2,39.2z"/>
	<path d="M183.2,39.1c0-4.3-0.3-8.7,0.1-13c0.4-4.8,3.6-6.3,7.5-3.3c1.8,1.3,2.5,0.5,3.8-0.3c7-4.2,13.6-0.9,14,7.2
		c0.4,7.6,0.1,15.3,0.2,22.9c0,3-1.3,4.2-4.2,4c-2.7-0.1-4.4-0.8-4.3-4c0.1-6.1,0.1-12.3-0.1-18.4c-0.1-2.1,0.1-4.7-2.9-5
		c-3.4-0.3-4.4,2.2-4.5,4.8c-0.3,5.6-0.2,11.3-0.3,16.9c-0.1,3-0.4,5.7-4.4,5.8c-4,0-4.5-2.8-4.6-5.7C183.1,47,183.2,43,183.2,39.1
		L183.2,39.1z"/>
	<path d="M104.7,20.5c8.7,0,12.8,3.7,13.5,11.5c0.5,5.8-0.4,11.6,1,17.4c0.7,3.1-2.9,5.9-5.8,4.6c-3.2-1.5-5.8-0.3-8.5,0.8
		c-5.5,2.1-11.2,0-12.9-4.7c-2.2-6.3,0.8-12.6,6.8-14.3c2.2-0.6,4.5-1,6.8-1.7c1.4-0.4,3.1-0.9,3.3-2.7c0.2-1.8-0.9-3.2-2.5-4
		c-1.6-0.9-3.3-0.5-4.6,0.6c-0.8,0.6-1.2,1.7-2,2.2c-2,1.3-4.2,1.2-6-0.3c-2-1.8-0.1-3.4,0.8-4.8C97.3,21.1,101.5,20.3,104.7,20.5z
		 M109.1,43.4c0.1-2.2,0.1-4.1-2.5-4.2c-3.5-0.1-5.7,1.6-6.1,5.1c-0.3,2.1,0.3,4.2,2.8,4.4C107.1,48.9,108.4,46.2,109.1,43.4z"/>
	<path d="M24.5,20.5c9.2-0.1,12.7,3.5,13.3,12c0.3,5.4-0.8,10.9,1.1,16.3c1,2.9-2.8,6.4-5.5,5.1c-3.2-1.6-5.7-0.5-8.4,0.5
		c-5.5,2.1-12.4-0.1-14-4.5c-2.1-5.9,1.5-12.7,7.8-14.4c2.1-0.6,4.2-1.1,6.3-1.5c1.8-0.3,3.3-0.9,3.5-2.9c0.1-1.3-0.3-2.7-1.6-3.5
		c-1.7-1.1-3.5-1.1-5.1,0.2c-1,0.8-1.9,1.9-2.9,2.7c-1.9,1.5-3.7,0.7-5.4-0.6c-2.1-1.5-0.6-3,0.1-4.3C16.3,21.4,20.5,20.3,24.5,20.5
		z M28.7,42.6c0.1-2.3-0.4-4-3-3.6c-3.2,0.5-5.6,2.1-5.8,5.7c-0.2,2.7,1.4,4.3,3.9,4C27.2,48.2,28.8,45.8,28.7,42.6z"/>
	<path d="M178.6,39.1c0.4,3.7-0.6,6.9-2.5,10c-2.6,4.2-6.4,7.1-11.3,6.9c-4.6-0.2-8.6-2.3-11.1-7.1c-3.3-6.4-3.2-12.9-1.1-19.3
		c2.2-6.7,8.1-9.7,14.9-8.7c5.1,0.8,10.3,7,11,13.3C178.8,35.8,178.6,37.5,178.6,39.1z M169.9,38.1c-0.1,0-0.1,0-0.2,0
		c0-1.7,0.1-3.3,0-5c-0.1-2.9-1.4-5.7-4.4-5.7s-4.2,2.7-4.6,5.6c-0.5,3.8-0.1,7.6,0.3,11.4c0.3,2.6,1.8,4.1,4.1,4.1s4-1.6,4.4-4
		C169.7,42.4,169.7,40.3,169.9,38.1z"/>
	<path d="M136.6,20.7c1.3,0,2.7,0,4,0c7.8,0.1,9,2.2,5,9c-1.9,3.1-4.2,6-6.1,9.1c-3,5-3,5.1,2.7,6c2.6,0.4,4.4,1.5,5.6,3.7
		c0.7,1.2,0.9,2.7,0.1,3.8c-0.9,1.4-2.6,1.1-3.6,0.5c-5.5-2.8-10.8-2.8-16.2,0.1c-2.3,1.2-3.5,0-3.6-2.4c-0.1-2.3,0.1-4.6,1.6-6.7
		c1.7-2.3,3.2-4.6,4.8-7c4-6.2,4-6.2-2.6-9.1c-1.9-0.8-2.9-2.1-2.6-4.3s2-2.5,3.7-2.6C131.6,20.7,134.1,20.8,136.6,20.7
		C136.6,20.8,136.6,20.8,136.6,20.7z"/>
	<path d="M250.7,44c0,3.2,0,6.3,0,9.5c0,1.6-0.3,3.1-2.4,3c-1.6,0-2.9-0.6-3.1-2.6c-0.8-8.6-0.4-17.2,0-25.8
		c0.2-3.3,2.2-4.8,5.5-2.8c1.1,0.7,1.8,0.7,3.1,0c8.6-4.7,13.3,1.5,14.3,9c0.7,5.7,0.1,11.6,0.2,17.5c0,2.5-1,4.5-3.5,4.6
		c-3.1,0.1-2.5-2.6-2.5-4.4c-0.1-5.8-0.1-11.6-0.1-17.5c0-3.6-1.4-6.3-5.1-6.8c-3.1-0.5-6.1,2.9-6.3,6.9
		C250.7,37.6,250.8,40.8,250.7,44L250.7,44z"/>
	<path d="M226.7,40.3c0.2,3.7-0.4,6.8,1.2,9.6c2.8,4.9,6.3,4.8,9.4,0.1c1-1.6,1-5.9,4.1-3.7c2.4,1.6,0.7,5-0.9,7.2
		c-4.6,6.1-14.2,4.7-17.1-2.2c-3.1-7.3-2.9-14.6,0.4-21.8c1.6-3.4,4.5-5.1,8.3-5.5c3.9-0.4,6.9,1.1,9.2,3.9c1.2,1.5,1.9,4-0.1,5.4
		c-2.2,1.6-2.4-1.3-3.6-2.2c-1.7-1.4-2.7-4.4-5.6-3.3c-2.8,1-4.6,3.2-5,6.3C226.8,36.4,226.8,38.7,226.7,40.3z"/>
	<path d="M215.8,51c1.6,0.1,2.3,1,2.4,2.5c0.1,1.6-0.4,3-2.4,2.9c-1.4-0.1-2.4-0.8-2.5-2.4C213.2,52.2,214.2,51.3,215.8,51z"/>
</g>
<path d="M38.8,60.6c0.3-0.4,0.8-0.5,1.3-0.4c5.4,1.3,15.4,13.1,48.7,13.3c33,0.3,39.9-7,42.4-8.2s4.6,0.5,3.8,1.6s-19.8,15-45.2,14
	C55.4,79.4,38.5,63.7,38,62C37.7,60.9,38.5,61.1,38.8,60.6z"/>
<path d="M126.2,63.3c-0.6,0.1-1-0.6-0.6-1.1c1.2-1.6,4.8-3.3,6.5-3.7c2.5-0.6,7.7-2.1,9.4-1c1.3,0.9,0,7.7-0.5,9.7
	c-0.2,0.9-0.9,5.2-1.9,6.6c-0.6,0.8-2,0.2-1.6-0.7c1.3-3.8,1.3-9.2-0.4-11.1C135.6,60.4,130.7,62.4,126.2,63.3z"/>
</svg>
