<?xml version="1.0" encoding="utf-8"?>
<!-- Generator: Adobe Illustrator 22.0.2, SVG Export Plug-In . SVG Version: 6.00 Build 0)  -->
<svg version="1.1" id="图层_1" xmlns="http://www.w3.org/2000/svg" xmlns:xlink="http://www.w3.org/1999/xlink" x="0px" y="0px"
	 viewBox="0 0 177 114" style="enable-background:new 0 0 177 114;" xml:space="preserve">
<path d="M79.2,108c0-1.3,0-2.5,0-3.7c0-30,0-60,0-90c0-1.6,0.1-3.2,0-4.7c0-0.9,0.2-1.3,1.3-1.3c8.7,0.1,17.4,0,26.1,0.3
	c8.5,0.3,16.8,2,24.5,5.6c11.4,5.3,18.8,14,22.2,26.1c3.2,11.4,3.2,22.9,0.4,34.3c-3.7,15-13.3,24.7-27.9,29.6
	c-6.6,2.3-13.5,3.4-20.5,3.6c-8.2,0.2-16.5,0.2-24.8,0.3C80.2,108.1,79.8,108.1,79.2,108z M92.7,95.8c1.4,0,2.5,0,3.7,0
	c6.1-0.1,12.2,0.1,18.3-1.2c13.8-2.8,22.9-10.4,26.2-24.4c1.6-6.6,1.6-13.3,0.7-20c-2-14.4-9.6-23.8-23.7-27.5
	c-7.5-2-15.1-2.1-22.8-1.8c-2.3,0.1-2.3,0.1-2.3,2.5c0,22.2,0,44.5,0,66.7C92.7,91.8,92.7,93.8,92.7,95.8z"/>
<path d="M23.2,108.5c0-4.5,0-8.5,0-12.6c2.2-0.1,4.4-0.2,6.5-0.4c4.9-0.4,9.6-1.5,13.8-4c4.2-2.5,6.9-6.2,7.4-11
	c0.5-5.4,0.7-10.9,0.7-16.4c0.1-17.7,0-35.4,0-53.1c0-3-0.3-2.5,2.5-2.6c3.3,0,6.6,0.1,9.9,0c1.3,0,1.6,0.4,1.6,1.7c0,18,0,36,0,54
	c0,5,0.2,10-0.2,15c-0.7,8.7-4.1,16.2-11.2,21.6c-4.7,3.6-10.2,5.4-16,6.3C33.3,107.6,28.3,108,23.2,108.5z"/>
</svg>
